<svg xmlns="http://www.w3.org/2000/svg" xmlns:xlink="http://www.w3.org/1999/xlink" width="2000" zoomAndPan="magnify" viewBox="0 0 1500 1499.999933" height="2000" preserveAspectRatio="xMidYMid meet" version="1.0"><defs><g/><clipPath id="53107ff5c1"><rect x="0" width="1475" y="0" height="435"/></clipPath></defs><g transform="matrix(1, 0, 0, 1, 14, 532)"><g clip-path="url(#53107ff5c1)"><path fill="#ffffff" d="M 1.828125 113.070312 C 8.605469 108.925781 18.347656 103.984375 25.535156 100.089844 L 73.351562 74.324219 C 94.839844 62.769531 120.882812 47.464844 142.316406 37.285156 C 144.039062 62.488281 141.871094 95.570312 142.734375 122.164062 C 126.320312 130.28125 98.605469 144.964844 82.726562 154.320312 C 128.277344 178.707031 173.972656 202.835938 219.796875 226.707031 L 262.625 249.425781 C 268.886719 252.761719 276.78125 257.347656 283.039062 260.28125 L 283.160156 345.453125 L 190.707031 395.417969 C 177.335938 402.632812 155.414062 415.304688 142.363281 421.125 C 142.0625 417.085938 142.207031 412.761719 142.148438 408.695312 C 141.808594 384.570312 142.699219 360.257812 141.964844 336.15625 C 158.675781 328.40625 185.089844 313.59375 201.394531 304.433594 C 183.042969 293.976562 161.480469 283.808594 142.59375 273.65625 C 96.164062 248.695312 48.03125 224.863281 1.917969 199.507812 C 2.480469 172.03125 2.160156 140.621094 1.828125 113.070312 Z M 1.828125 113.070312 " fill-opacity="1" fill-rule="nonzero"/><path fill="#dad7e0" d="M 142.316406 37.285156 C 173.90625 53.460938 206.644531 71.5625 237.824219 88.605469 L 267.507812 104.765625 C 271.335938 106.835938 279.175781 111.339844 282.933594 112.851562 L 282.726562 229.289062 C 257.8125 215.972656 232.808594 202.828125 207.71875 189.851562 C 207.648438 179.722656 207.296875 167.167969 207.851562 157.144531 L 164.023438 133.761719 C 159.496094 131.339844 146.359375 124.734375 142.734375 122.164062 C 141.871094 95.570312 144.039062 62.488281 142.316406 37.285156 Z M 142.316406 37.285156 " fill-opacity="1" fill-rule="nonzero"/><path fill="#dad7e0" d="M 1.667969 230.597656 C 18.277344 237.960938 34.75 248.296875 51.183594 256.304688 C 59.617188 260.410156 68.738281 265.265625 76.804688 269.96875 C 77.410156 278.359375 76.945312 292.992188 76.921875 301.617188 C 98.453125 312.464844 120.5625 324.835938 141.964844 336.15625 C 142.699219 360.257812 141.808594 384.570312 142.148438 408.695312 C 142.207031 412.761719 142.0625 417.085938 142.363281 421.125 C 139.34375 419.984375 135.4375 417.71875 132.527344 416.136719 C 88.886719 392.386719 45.167969 368.722656 1.433594 345.136719 C 3 325.4375 1.539062 300.753906 1.679688 280.640625 C 1.789062 264.390625 2.363281 246.75 1.667969 230.597656 Z M 1.667969 230.597656 " fill-opacity="1" fill-rule="nonzero"/><g fill="#ffffff" fill-opacity="1"><g transform="translate(337.865234, 341.327579)"><g><path d="M 14.617188 -129.035156 C 14.617188 -139.222656 17.175781 -148.480469 22.289062 -156.8125 C 27.355469 -165.074219 34.113281 -171.640625 42.554688 -176.519531 C 51.035156 -181.421875 60.40625 -183.871094 70.664062 -183.871094 L 180.40625 -183.871094 L 180.40625 -138.457031 L 70.664062 -138.457031 C 67.664062 -138.457031 65.113281 -137.492188 63.019531 -135.558594 C 61.027344 -133.722656 60.03125 -131.550781 60.03125 -129.035156 L 60.03125 -124.703125 C 60.03125 -122.054688 61.039062 -119.785156 63.054688 -117.886719 C 65.144531 -115.921875 67.679688 -114.9375 70.664062 -114.9375 L 136.136719 -114.9375 C 146.40625 -114.9375 155.785156 -112.453125 164.269531 -107.488281 C 172.710938 -102.546875 179.433594 -95.949219 184.441406 -87.6875 C 189.488281 -79.359375 192.011719 -70.105469 192.011719 -59.925781 L 192.011719 -50.574219 C 192.011719 -40.515625 189.488281 -31.296875 184.449219 -22.914062 C 179.441406 -14.589844 172.714844 -7.957031 164.269531 -3.015625 C 155.785156 1.949219 146.40625 4.433594 136.136719 4.433594 L 22.757812 4.433594 L 22.757812 -40.980469 L 136.136719 -40.980469 C 139.121094 -40.980469 141.65625 -41.964844 143.75 -43.929688 C 145.761719 -45.828125 146.769531 -48.097656 146.769531 -50.746094 L 146.769531 -59.753906 C 146.769531 -62.519531 145.761719 -64.847656 143.75 -66.746094 C 141.65625 -68.710938 139.121094 -69.695312 136.136719 -69.695312 L 70.664062 -69.695312 C 60.394531 -69.695312 51.019531 -72.179688 42.53125 -77.144531 C 34.09375 -82.082031 27.34375 -88.707031 22.28125 -97.023438 C 17.171875 -105.410156 14.617188 -114.636719 14.617188 -124.703125 Z M 23.484375 -129.035156 L 23.484375 -124.703125 C 23.484375 -116.296875 25.609375 -108.605469 29.855469 -101.636719 C 34.140625 -94.59375 39.863281 -88.984375 47.011719 -84.796875 C 54.113281 -80.640625 62 -78.5625 70.664062 -78.5625 L 136.136719 -78.5625 C 141.464844 -78.5625 146.027344 -76.777344 149.828125 -73.203125 C 153.703125 -69.554688 155.636719 -65.074219 155.636719 -59.753906 L 155.636719 -50.746094 C 155.636719 -45.542969 153.703125 -41.121094 149.828125 -37.472656 C 146.027344 -33.898438 141.464844 -32.113281 136.136719 -32.113281 L 27.191406 -32.113281 L 27.191406 -36.546875 L 31.625 -36.546875 L 31.625 0 L 27.191406 0 L 27.191406 -4.433594 L 136.136719 -4.433594 C 144.804688 -4.433594 152.6875 -6.511719 159.789062 -10.667969 C 166.933594 -14.847656 172.621094 -20.453125 176.847656 -27.484375 C 181.042969 -34.460938 183.144531 -42.15625 183.144531 -50.574219 L 183.144531 -59.925781 C 183.144531 -68.453125 181.046875 -76.175781 176.855469 -83.089844 C 172.625 -90.070312 166.9375 -95.652344 159.789062 -99.832031 C 152.6875 -103.988281 144.804688 -106.066406 136.136719 -106.066406 L 70.664062 -106.066406 C 65.335938 -106.066406 60.773438 -107.855469 56.976562 -111.429688 C 53.101562 -115.078125 51.164062 -119.5 51.164062 -124.703125 L 51.164062 -129.035156 C 51.164062 -134.140625 53.113281 -138.488281 57.007812 -142.082031 C 60.800781 -145.578125 65.355469 -147.324219 70.664062 -147.324219 L 175.972656 -147.324219 L 175.972656 -142.890625 L 171.539062 -142.890625 L 171.539062 -179.4375 L 175.972656 -179.4375 L 175.972656 -175.003906 L 70.664062 -175.003906 C 61.992188 -175.003906 54.097656 -172.949219 46.992188 -168.84375 C 39.84375 -164.714844 34.128906 -159.160156 29.847656 -152.175781 C 25.605469 -145.265625 23.484375 -137.554688 23.484375 -129.035156 Z M 23.484375 -129.035156 "/></g></g></g><g fill="#ffffff" fill-opacity="1"><g transform="translate(539.173199, 341.327579)"><g><path d="M 14.617188 -114.660156 C 14.617188 -127.363281 17.742188 -138.972656 23.988281 -149.484375 C 30.203125 -159.949219 38.539062 -168.285156 49.003906 -174.5 C 59.515625 -180.746094 71.125 -183.871094 83.828125 -183.871094 L 122.972656 -183.871094 C 135.675781 -183.871094 147.285156 -180.746094 157.800781 -174.5 C 168.261719 -168.285156 176.601562 -159.949219 182.816406 -149.484375 C 189.0625 -138.972656 192.183594 -127.363281 192.183594 -114.660156 L 192.183594 -64.777344 C 192.183594 -52.070312 189.0625 -40.464844 182.816406 -29.949219 C 176.601562 -19.488281 168.261719 -11.148438 157.800781 -4.933594 C 147.285156 1.3125 135.675781 4.433594 122.972656 4.433594 L 83.828125 4.433594 C 71.125 4.433594 59.515625 1.3125 49.003906 -4.933594 C 38.539062 -11.148438 30.203125 -19.488281 23.988281 -29.949219 C 17.742188 -40.464844 14.617188 -52.070312 14.617188 -64.777344 Z M 23.484375 -114.660156 L 23.484375 -64.777344 C 23.484375 -53.695312 26.195312 -43.597656 31.609375 -34.480469 C 37.058594 -25.3125 44.363281 -18.003906 53.53125 -12.558594 C 62.648438 -7.140625 72.746094 -4.433594 83.828125 -4.433594 L 122.972656 -4.433594 C 134.054688 -4.433594 144.152344 -7.140625 153.269531 -12.558594 C 162.4375 -18.003906 169.746094 -25.3125 175.191406 -34.480469 C 180.609375 -43.597656 183.316406 -53.695312 183.316406 -64.777344 L 183.316406 -114.660156 C 183.316406 -125.742188 180.609375 -135.839844 175.191406 -144.957031 C 169.746094 -154.125 162.4375 -161.429688 153.269531 -166.878906 C 144.152344 -172.292969 134.054688 -175.003906 122.972656 -175.003906 L 83.828125 -175.003906 C 72.746094 -175.003906 62.648438 -172.292969 53.53125 -166.878906 C 44.363281 -161.429688 37.058594 -154.125 31.609375 -144.957031 C 26.195312 -135.839844 23.484375 -125.742188 23.484375 -114.660156 Z M 60.03125 -65.125 C 60.03125 -58.488281 62.375 -52.800781 67.0625 -48.066406 C 71.738281 -43.339844 77.328125 -40.980469 83.828125 -40.980469 L 122.972656 -40.980469 C 129.582031 -40.980469 135.195312 -43.335938 139.808594 -48.046875 C 144.449219 -52.785156 146.769531 -58.476562 146.769531 -65.125 L 146.769531 -114.3125 C 146.769531 -120.957031 144.449219 -126.648438 139.808594 -131.386719 C 135.195312 -136.101562 129.582031 -138.457031 122.972656 -138.457031 L 83.828125 -138.457031 C 77.328125 -138.457031 71.738281 -136.09375 67.0625 -131.371094 C 62.375 -126.636719 60.03125 -120.949219 60.03125 -114.3125 Z M 51.164062 -65.125 L 51.164062 -114.3125 C 51.164062 -123.378906 54.363281 -131.144531 60.757812 -137.609375 C 67.167969 -144.085938 74.859375 -147.324219 83.828125 -147.324219 L 122.972656 -147.324219 C 132.066406 -147.324219 139.792969 -144.082031 146.144531 -137.59375 C 152.472656 -131.132812 155.636719 -123.371094 155.636719 -114.3125 L 155.636719 -65.125 C 155.636719 -56.066406 152.472656 -48.304688 146.144531 -41.84375 C 139.792969 -35.355469 132.066406 -32.113281 122.972656 -32.113281 L 83.828125 -32.113281 C 74.859375 -32.113281 67.167969 -35.351562 60.757812 -41.828125 C 54.363281 -48.289062 51.164062 -56.054688 51.164062 -65.125 Z M 51.164062 -65.125 "/></g></g></g><g fill="#ffffff" fill-opacity="1"><g transform="translate(740.654375, 341.327579)"><g><path d="M 16.351562 -143.0625 C 16.351562 -154.347656 20.398438 -163.976562 28.5 -171.945312 C 36.578125 -179.894531 46.304688 -183.871094 57.675781 -183.871094 L 120.894531 -183.871094 C 133.597656 -183.871094 145.207031 -180.746094 155.722656 -174.5 C 166.183594 -168.285156 174.519531 -159.949219 180.738281 -149.484375 C 186.984375 -138.972656 190.105469 -127.363281 190.105469 -114.660156 L 190.105469 4.433594 L 144.691406 4.433594 L 144.691406 -114.140625 C 144.691406 -121.023438 142.367188 -126.867188 137.714844 -131.664062 C 133.101562 -136.421875 127.496094 -138.804688 120.894531 -138.804688 L 57.328125 -138.804688 L 57.328125 -143.238281 L 61.761719 -143.238281 L 61.761719 4.433594 L 16.351562 4.433594 Z M 25.21875 -143.0625 L 25.21875 0 L 20.785156 0 L 20.785156 -4.433594 L 57.328125 -4.433594 L 57.328125 0 L 52.894531 0 L 52.894531 -147.671875 L 120.894531 -147.671875 C 129.996094 -147.671875 137.726562 -144.394531 144.082031 -137.835938 C 150.402344 -131.320312 153.558594 -123.417969 153.558594 -114.140625 L 153.558594 0 L 149.125 0 L 149.125 -4.433594 L 185.671875 -4.433594 L 185.671875 0 L 181.238281 0 L 181.238281 -114.660156 C 181.238281 -125.742188 178.527344 -135.839844 173.113281 -144.957031 C 167.667969 -154.125 160.359375 -161.429688 151.191406 -166.878906 C 142.074219 -172.292969 131.976562 -175.003906 120.894531 -175.003906 L 57.675781 -175.003906 C 48.726562 -175.003906 41.074219 -171.875 34.71875 -165.625 C 28.386719 -159.390625 25.21875 -151.871094 25.21875 -143.0625 Z M 25.21875 -143.0625 "/></g></g></g><g fill="#ffffff" fill-opacity="1"><g transform="translate(941.789162, 341.327579)"><g><path d="M 14.617188 -115.003906 C 14.617188 -127.71875 17.746094 -139.277344 24 -149.679688 C 30.214844 -160.015625 38.546875 -168.289062 49.003906 -174.5 C 59.515625 -180.746094 71.125 -183.871094 83.828125 -183.871094 L 188.375 -183.871094 L 188.375 4.433594 L 142.960938 4.433594 L 142.960938 -142.890625 L 147.394531 -142.890625 L 147.394531 -138.457031 L 83.828125 -138.457031 C 77.308594 -138.457031 71.707031 -136.140625 67.03125 -131.511719 C 62.363281 -126.894531 60.03125 -121.277344 60.03125 -114.660156 L 60.03125 -65.125 C 60.03125 -58.488281 62.375 -52.800781 67.0625 -48.066406 C 71.738281 -43.339844 77.328125 -40.980469 83.828125 -40.980469 L 131.042969 -40.980469 L 131.042969 4.433594 L 83.828125 4.433594 C 71.125 4.433594 59.515625 1.3125 49.003906 -4.933594 C 38.539062 -11.148438 30.203125 -19.488281 23.988281 -29.949219 C 17.742188 -40.464844 14.617188 -52.070312 14.617188 -64.777344 Z M 23.484375 -115.003906 L 23.484375 -64.777344 C 23.484375 -53.695312 26.195312 -43.597656 31.609375 -34.480469 C 37.058594 -25.3125 44.363281 -18.003906 53.53125 -12.558594 C 62.648438 -7.140625 72.746094 -4.433594 83.828125 -4.433594 L 126.609375 -4.433594 L 126.609375 0 L 122.175781 0 L 122.175781 -36.546875 L 126.609375 -36.546875 L 126.609375 -32.113281 L 83.828125 -32.113281 C 74.859375 -32.113281 67.167969 -35.351562 60.757812 -41.828125 C 54.363281 -48.289062 51.164062 -56.054688 51.164062 -65.125 L 51.164062 -114.660156 C 51.164062 -123.746094 54.375 -131.464844 60.792969 -137.816406 C 67.199219 -144.15625 74.878906 -147.324219 83.828125 -147.324219 L 151.828125 -147.324219 L 151.828125 0 L 147.394531 0 L 147.394531 -4.433594 L 183.9375 -4.433594 L 183.9375 0 L 179.503906 0 L 179.503906 -179.4375 L 183.9375 -179.4375 L 183.9375 -175.003906 L 83.828125 -175.003906 C 72.746094 -175.003906 62.648438 -172.292969 53.53125 -166.878906 C 44.359375 -161.425781 37.046875 -154.171875 31.597656 -145.109375 C 26.191406 -136.113281 23.484375 -126.078125 23.484375 -115.003906 Z M 23.484375 -115.003906 "/></g></g></g><g fill="#ffffff" fill-opacity="1"><g transform="translate(1141.191902, 341.327579)"><g><path d="M 12.125 -183.871094 L 35.507812 -183.871094 L 35.507812 -179.4375 L 31.070312 -179.4375 L 31.070312 -250.726562 L 76.484375 -250.726562 L 76.484375 -179.4375 L 72.050781 -179.4375 L 72.050781 -183.871094 L 131.738281 -183.871094 L 131.738281 -138.457031 L 72.050781 -138.457031 L 72.050781 -142.890625 L 76.484375 -142.890625 L 76.484375 -50.921875 C 76.484375 -48.289062 77.539062 -45.996094 79.652344 -44.042969 C 81.863281 -42 84.523438 -40.980469 87.640625 -40.980469 L 131.738281 -40.980469 L 131.738281 4.433594 L 87.121094 4.433594 C 76.851562 4.433594 67.472656 1.949219 58.988281 -3.015625 C 50.550781 -7.953125 43.796875 -14.578125 38.734375 -22.894531 C 33.625 -31.28125 31.070312 -40.566406 31.070312 -50.746094 L 31.070312 -142.890625 L 35.507812 -142.890625 L 35.507812 -138.457031 L 7.691406 -138.457031 L 7.691406 -183.871094 Z M 12.125 -175.003906 L 12.125 -179.4375 L 16.558594 -179.4375 L 16.558594 -142.890625 L 12.125 -142.890625 L 12.125 -147.324219 L 39.941406 -147.324219 L 39.941406 -50.746094 C 39.941406 -42.222656 42.0625 -34.476562 46.308594 -27.507812 C 50.597656 -20.464844 56.316406 -14.851562 63.464844 -10.667969 C 70.570312 -6.511719 78.453125 -4.433594 87.121094 -4.433594 L 127.300781 -4.433594 L 127.300781 0 L 122.867188 0 L 122.867188 -36.546875 L 127.300781 -36.546875 L 127.300781 -32.113281 L 87.640625 -32.113281 C 82.210938 -32.113281 77.539062 -33.917969 73.632812 -37.53125 C 69.621094 -41.238281 67.617188 -45.703125 67.617188 -50.921875 L 67.617188 -147.324219 L 127.300781 -147.324219 L 127.300781 -142.890625 L 122.867188 -142.890625 L 122.867188 -179.4375 L 127.300781 -179.4375 L 127.300781 -175.003906 L 67.617188 -175.003906 L 67.617188 -246.292969 L 72.050781 -246.292969 L 72.050781 -241.859375 L 35.507812 -241.859375 L 35.507812 -246.292969 L 39.941406 -246.292969 L 39.941406 -175.003906 Z M 12.125 -175.003906 "/></g></g></g><g fill="#ffffff" fill-opacity="1"><g transform="translate(1275.297871, 341.327579)"><g><path d="M 14.617188 -115.003906 C 14.617188 -127.71875 17.746094 -139.277344 24 -149.679688 C 30.214844 -160.015625 38.546875 -168.289062 49.003906 -174.5 C 59.515625 -180.746094 71.125 -183.871094 83.828125 -183.871094 L 188.375 -183.871094 L 188.375 4.433594 L 142.960938 4.433594 L 142.960938 -142.890625 L 147.394531 -142.890625 L 147.394531 -138.457031 L 83.828125 -138.457031 C 77.308594 -138.457031 71.707031 -136.140625 67.03125 -131.511719 C 62.363281 -126.894531 60.03125 -121.277344 60.03125 -114.660156 L 60.03125 -65.125 C 60.03125 -58.488281 62.375 -52.800781 67.0625 -48.066406 C 71.738281 -43.339844 77.328125 -40.980469 83.828125 -40.980469 L 131.042969 -40.980469 L 131.042969 4.433594 L 83.828125 4.433594 C 71.125 4.433594 59.515625 1.3125 49.003906 -4.933594 C 38.539062 -11.148438 30.203125 -19.488281 23.988281 -29.949219 C 17.742188 -40.464844 14.617188 -52.070312 14.617188 -64.777344 Z M 23.484375 -115.003906 L 23.484375 -64.777344 C 23.484375 -53.695312 26.195312 -43.597656 31.609375 -34.480469 C 37.058594 -25.3125 44.363281 -18.003906 53.53125 -12.558594 C 62.648438 -7.140625 72.746094 -4.433594 83.828125 -4.433594 L 126.609375 -4.433594 L 126.609375 0 L 122.175781 0 L 122.175781 -36.546875 L 126.609375 -36.546875 L 126.609375 -32.113281 L 83.828125 -32.113281 C 74.859375 -32.113281 67.167969 -35.351562 60.757812 -41.828125 C 54.363281 -48.289062 51.164062 -56.054688 51.164062 -65.125 L 51.164062 -114.660156 C 51.164062 -123.746094 54.375 -131.464844 60.792969 -137.816406 C 67.199219 -144.15625 74.878906 -147.324219 83.828125 -147.324219 L 151.828125 -147.324219 L 151.828125 0 L 147.394531 0 L 147.394531 -4.433594 L 183.9375 -4.433594 L 183.9375 0 L 179.503906 0 L 179.503906 -179.4375 L 183.9375 -179.4375 L 183.9375 -175.003906 L 83.828125 -175.003906 C 72.746094 -175.003906 62.648438 -172.292969 53.53125 -166.878906 C 44.359375 -161.425781 37.046875 -154.171875 31.597656 -145.109375 C 26.191406 -136.113281 23.484375 -126.078125 23.484375 -115.003906 Z M 23.484375 -115.003906 "/></g></g></g></g></g></svg>