<svg xmlns="http://www.w3.org/2000/svg" xmlns:xlink="http://www.w3.org/1999/xlink" width="2000" zoomAndPan="magnify" viewBox="0 0 1500 1499.999933" height="2000" preserveAspectRatio="xMidYMid meet" version="1.0"><path fill="#ffffff" d="M 327.890625 395.035156 C 348.269531 382.574219 377.570312 367.714844 399.1875 356.003906 L 542.984375 278.511719 C 607.601562 243.761719 685.933594 197.742188 750.390625 167.128906 C 755.566406 242.921875 749.039062 342.410156 751.636719 422.386719 C 702.285156 446.800781 618.929688 490.953125 571.171875 519.09375 C 708.167969 592.429688 845.582031 664.996094 983.398438 736.78125 L 1112.191406 805.101562 C 1131.019531 815.136719 1154.761719 828.929688 1173.585938 837.757812 L 1173.945312 1093.890625 L 895.914062 1244.160156 C 855.695312 1265.851562 789.769531 1303.960938 750.527344 1321.460938 C 749.625 1309.316406 750.050781 1296.3125 749.875 1284.085938 C 748.851562 1211.535156 751.535156 1138.417969 749.332031 1065.933594 C 799.589844 1042.632812 879.019531 998.078125 928.050781 970.539062 C 872.867188 939.082031 808.023438 908.503906 751.222656 877.972656 C 611.582031 802.902344 466.839844 731.238281 328.160156 654.980469 C 329.847656 572.347656 328.882812 477.886719 327.890625 395.035156 Z M 327.890625 395.035156 " fill-opacity="1" fill-rule="nonzero"/><path fill="#dad7e0" d="M 750.390625 167.128906 C 845.382812 215.769531 943.847656 270.207031 1037.609375 321.46875 L 1126.882812 370.066406 C 1138.390625 376.285156 1161.972656 389.835938 1173.265625 394.382812 L 1172.644531 744.546875 C 1097.722656 704.5 1022.53125 664.964844 947.070312 625.949219 C 946.867188 595.484375 945.800781 557.734375 947.476562 527.582031 L 815.664062 457.261719 C 802.054688 449.980469 762.542969 430.121094 751.636719 422.386719 C 749.039062 342.410156 755.566406 242.921875 750.390625 167.128906 Z M 750.390625 167.128906 " fill-opacity="1" fill-rule="nonzero"/><path fill="#dad7e0" d="M 327.40625 748.488281 C 377.351562 770.628906 426.894531 801.710938 476.316406 825.789062 C 501.675781 838.144531 529.109375 852.738281 553.367188 866.882812 C 555.1875 892.117188 553.789062 936.128906 553.71875 962.066406 C 618.472656 994.691406 684.957031 1031.890625 749.332031 1065.933594 C 751.535156 1138.417969 748.851562 1211.535156 749.875 1284.085938 C 750.050781 1296.3125 749.625 1309.316406 750.527344 1321.460938 C 741.441406 1318.03125 729.695312 1311.21875 720.949219 1306.460938 C 589.699219 1235.042969 458.21875 1163.878906 326.707031 1092.9375 C 331.414062 1033.699219 327.015625 959.464844 327.4375 898.980469 C 327.777344 850.105469 329.5 797.066406 327.40625 748.488281 Z M 327.40625 748.488281 " fill-opacity="1" fill-rule="nonzero"/></svg>